<?xml version="1.0" encoding="utf-8"?>
<!-- Generator: Adobe Illustrator 27.0.0, SVG Export Plug-In . SVG Version: 6.00 Build 0)  -->
<svg version="1.1" id="Layer_1" xmlns="http://www.w3.org/2000/svg" xmlns:xlink="http://www.w3.org/1999/xlink" x="0px" y="0px"
	 viewBox="0 0 512 512" style="enable-background:new 0 0 512 512;" xml:space="preserve">
<style type="text/css">
	.st0{fill:#525270;}
	.st1{fill:#2ECC71;}
	.st2{fill:#9293A2;}
	.st3{fill:#FFFFFF;}
</style>
<g>
	<path class="st0" d="M72.23,333.1H6.05c-2.6,0-4.71-2.11-4.71-4.71v0c0-2.6,2.11-4.71,4.71-4.71h66.26
		c36.87,0,66.87-30.51,65.29-67.35c-1.47-34.31-29.84-61.77-64.5-61.77H59.41c-2.6,0-4.71-2.11-4.71-4.71l0,0
		c0-2.6,2.11-4.71,4.71-4.71H73.1c40.35,0,73.25,32.47,73.96,72.65C147.8,299.3,113.74,333.1,72.23,333.1z"/>
</g>
<path class="st1" d="M83.4,211.69c-5.52-0.84-10.93,0.06-16.24,1.7c-2.69,0.83-5.39,1.71-8.15,2.27c-1.44,0.3-2.88,0.43-4.3,0.44
	c-3.15,0-6.25-0.65-9.31-1.68c-3.54-1.19-7.11-2.21-10.83-2.75c-11.1-1.62-21.32,3.11-26.61,12.44c-1.64,2.89-2.65,5.98-3.02,9.29
	c-0.02,0.22-0.12,0.43-0.18,0.64c0,2.08,0,4.16,0,6.24c0.16,1.67,0.31,3.35,0.49,5.02c0.68,6.62,2.33,13.01,4.35,19.33
	c4.13,12.88,8.19,25.77,12.21,38.68c1.33,4.26,3.92,7.01,8.37,7.87c0.06,0.01,0.1,0.08,0.15,0.12c0.91,0,1.82,0,2.73,0
	c0.77-0.23,1.57-0.4,2.32-0.69c2.36-0.93,4.08-2.58,5.28-4.81c2.75-5.08,5.51-10.15,8.29-15.21c1.25-2.27,3.45-3.54,5.77-3.53
	c0.79,0,1.59,0.15,2.38,0.46c1.58,0.62,2.69,1.75,3.49,3.24c2.67,4.94,5.4,9.84,8.04,14.79c1.64,3.06,4.03,5.02,7.49,5.63
	c0.09,0.02,0.17,0.09,0.26,0.13c0.91,0,1.82,0,2.73,0c0.05-0.04,0.09-0.11,0.15-0.12c4.45-0.86,7.04-3.62,8.37-7.87
	c4.49-14.4,9.09-28.77,13.57-43.18c2.37-7.62,3.44-15.46,3.47-23.43C104.71,224.02,95.92,213.6,83.4,211.69z"/>
<g>
	<path class="st0" d="M187.99,217.45h25.38c6.33,0,11.1,0.35,14.31,1.04c3.21,0.7,6.22,2.11,9.04,4.23
		c8.73,6.61,13.09,17.09,13.09,31.46c0,8.54-1.62,16.01-4.87,22.42c-3.24,6.41-7.67,10.89-13.27,13.44
		c-1.04,0.46-2.14,0.85-3.3,1.16c-1.16,0.31-2.43,0.57-3.82,0.78c-1.39,0.21-2.93,0.37-4.61,0.46c-1.68,0.1-3.56,0.14-5.65,0.14
		h-26.31V217.45z M198.42,226.84v56.32h15.18c7.03,0,12.15-1.12,15.35-3.36c6.68-4.6,10.02-13.19,10.02-25.78
		c0-6.3-1.05-11.61-3.16-15.93c-2.11-4.33-5.15-7.42-9.13-9.27c-2.67-1.31-7.15-1.97-13.44-1.97H198.42z"/>
	<path class="st0" d="M310.91,268.15h-39.92c0,5.68,1.34,10,4.03,12.95c2.68,2.96,6.5,4.43,11.44,4.43
		c7.49,0,12.09-3.69,13.79-11.07h9.91c-0.7,3.09-1.76,5.84-3.19,8.26c-1.43,2.42-3.17,4.46-5.21,6.14
		c-2.05,1.68-4.38,2.97-7.01,3.85c-2.63,0.89-5.5,1.33-8.63,1.33c-3.9,0-7.4-0.67-10.49-2c-3.09-1.33-5.72-3.25-7.88-5.77
		c-2.16-2.51-3.82-5.55-4.98-9.13c-1.16-3.57-1.74-7.62-1.74-12.14c0-4.48,0.64-8.5,1.91-12.05c1.28-3.55,3.05-6.57,5.33-9.04
		c2.28-2.47,5-4.36,8.17-5.68c3.17-1.31,6.64-1.97,10.43-1.97c3.55,0,6.81,0.56,9.76,1.68c2.96,1.12,5.5,2.81,7.62,5.07
		c2.12,2.26,3.78,5.12,4.95,8.58c1.18,3.46,1.77,7.52,1.77,12.2L310.91,268.15z M301.41,259.57c0-2.32-0.37-4.39-1.1-6.23
		c-0.73-1.83-1.75-3.39-3.04-4.66c-1.29-1.27-2.85-2.25-4.66-2.93c-1.82-0.68-3.81-1.01-5.97-1.01c-8.81,0-13.91,4.94-15.3,14.83
		H301.41z"/>
	<path class="st0" d="M325.08,237.56h9.5v7.19c2.82-3.25,5.49-5.48,8-6.72c2.47-1.24,5.47-1.85,8.98-1.85
		c2.39,0,4.64,0.36,6.75,1.07c2.11,0.72,3.95,1.75,5.53,3.1c1.58,1.35,2.83,3.02,3.74,5.01c0.91,1.99,1.36,4.26,1.36,6.81l0.12,5.39
		v35.05h-9.5v-33.26c0-5.1-0.62-8.56-1.85-10.37c-1.85-2.82-4.85-4.23-8.98-4.23c-5.6,0-9.68,2.34-12.23,7.01
		c-1.16,1.78-1.76,4.04-1.8,6.78l-0.12,5.21v28.86h-9.5V237.56z"/>
	<path class="st0" d="M381.03,237.56h7.24v-13.5h9.45v13.5h9.15v8h-9.15v33.38c0,1.31,0.09,2.4,0.26,3.27s0.49,1.56,0.96,2.09
		c0.46,0.52,1.08,0.89,1.85,1.1c0.77,0.21,1.76,0.32,2.96,0.32l3.13-0.12v8.05l-7.07,0.41c-5.72,0-9.25-2.07-10.6-6.2
		c-0.62-1.58-0.93-4.79-0.93-9.62v-32.68h-7.24V237.56z"/>
	<path class="st0" d="M420.52,237.56h9.56v9.15c1.93-3.86,4.07-6.59,6.4-8.17c2.34-1.58,4.99-2.38,7.97-2.38
		c0.35,0,0.73,0.02,1.16,0.06c0.42,0.04,1.06,0.15,1.91,0.35v10.14l-3.01-0.29c-3.52,0-6.49,0.9-8.92,2.69s-4.04,4.45-4.81,7.97
		c-0.39,1.82-0.58,4.54-0.58,8.17v27.35h-9.68V237.56z"/>
	<path class="st0" d="M458.74,254.71c0-3.05,0.51-5.74,1.54-8.05c1.02-2.32,2.49-4.26,4.4-5.82s4.22-2.73,6.92-3.51
		c2.7-0.77,5.75-1.16,9.15-1.16c3.48,0,6.53,0.3,9.16,0.9c2.63,0.6,4.82,1.58,6.58,2.96c1.76,1.37,3.08,3.16,3.97,5.36
		c0.89,2.2,1.33,4.91,1.33,8.11v26.25c0,3.79,1.12,5.68,3.36,5.68l2.72-0.23v7.24c-0.7,0.23-1.31,0.42-1.85,0.55
		c-0.54,0.14-1.03,0.25-1.48,0.35c-0.44,0.1-0.86,0.16-1.25,0.17c-0.39,0.02-0.81,0.03-1.27,0.03c-5.14,0-8.07-2.78-8.81-8.34
		c-5.33,5.91-11.63,8.87-18.89,8.87c-2.67,0-5.1-0.38-7.3-1.13c-2.2-0.75-4.08-1.84-5.65-3.27c-1.56-1.43-2.77-3.15-3.62-5.16
		c-0.85-2.01-1.27-4.29-1.27-6.84c0-6.91,3.05-11.8,9.15-14.66c4.17-1.93,11.34-3.48,21.5-4.64l5.5-0.75v-2.67
		c0-2.01-0.26-3.67-0.78-4.98c-0.52-1.31-1.29-2.37-2.29-3.16c-1-0.79-2.24-1.35-3.71-1.68c-1.47-0.33-3.17-0.49-5.1-0.49
		c-3.9,0-6.9,0.83-9.01,2.49c-2.11,1.66-3.16,4.19-3.16,7.59H458.74z M492.52,265.02c-1.27,0.19-2.44,0.37-3.51,0.52
		s-2.13,0.32-3.22,0.49s-2.23,0.38-3.45,0.61s-2.62,0.52-4.2,0.87c-2.09,0.5-3.86,1.03-5.33,1.59c-1.47,0.56-2.67,1.21-3.59,1.94
		c-0.93,0.73-1.59,1.59-2,2.58c-0.41,0.98-0.61,2.15-0.61,3.5c0,2.67,0.86,4.73,2.58,6.2c1.72,1.47,4.14,2.2,7.27,2.2
		c2.2,0,4.28-0.35,6.23-1.04c1.95-0.7,3.65-1.62,5.1-2.78c1.45-1.16,2.6-2.51,3.45-4.06c0.85-1.54,1.27-3.19,1.27-4.92V265.02z"/>
</g>
<g>
	<path class="st2" d="M186.26,316.57h1.87v-3.49h2.44v3.49h2.37v2.07h-2.37v8.64c0,0.34,0.02,0.62,0.07,0.85
		c0.04,0.23,0.13,0.41,0.25,0.54s0.28,0.23,0.48,0.29c0.2,0.05,0.45,0.08,0.76,0.08l0.81-0.03v2.08l-1.83,0.11
		c-1.48,0-2.39-0.54-2.74-1.61c-0.16-0.41-0.24-1.24-0.24-2.49v-8.46h-1.87V316.57z"/>
	<path class="st2" d="M195.48,311.37h2.46v6.73c0.65-0.66,1.31-1.14,1.98-1.44s1.44-0.45,2.31-0.45c0.75,0,1.41,0.09,1.99,0.27
		c0.58,0.18,1.06,0.48,1.45,0.89c0.39,0.42,0.68,0.96,0.88,1.63s0.3,1.49,0.3,2.46v9.36h-2.46v-8.79c0-0.65-0.05-1.21-0.15-1.67
		s-0.26-0.83-0.47-1.12c-0.22-0.29-0.49-0.49-0.83-0.62s-0.75-0.2-1.24-0.2c-0.42,0-0.82,0.07-1.21,0.2
		c-0.39,0.13-0.75,0.31-1.07,0.55s-0.6,0.54-0.83,0.88c-0.23,0.35-0.4,0.74-0.5,1.17c-0.1,0.44-0.15,1.11-0.15,2.02v7.56h-2.46
		V311.37z"/>
	<path class="st2" d="M222.52,324.49h-10.33c0,1.47,0.35,2.59,1.04,3.35c0.69,0.77,1.68,1.15,2.96,1.15c1.94,0,3.13-0.95,3.57-2.86
		h2.56c-0.18,0.8-0.46,1.51-0.82,2.14c-0.37,0.62-0.82,1.16-1.35,1.59c-0.53,0.44-1.13,0.77-1.81,1c-0.68,0.23-1.42,0.35-2.23,0.35
		c-1.01,0-1.91-0.17-2.71-0.52s-1.48-0.84-2.04-1.49c-0.56-0.65-0.99-1.44-1.29-2.36c-0.3-0.92-0.45-1.97-0.45-3.14
		c0-1.16,0.17-2.2,0.5-3.12c0.33-0.92,0.79-1.7,1.38-2.34s1.29-1.13,2.11-1.47s1.72-0.51,2.7-0.51c0.92,0,1.76,0.14,2.53,0.43
		c0.76,0.29,1.42,0.73,1.97,1.31c0.55,0.58,0.98,1.33,1.28,2.22c0.3,0.89,0.46,1.95,0.46,3.16L222.52,324.49z M220.06,322.27
		c0-0.6-0.1-1.14-0.29-1.61c-0.19-0.47-0.45-0.88-0.79-1.21c-0.34-0.33-0.74-0.58-1.21-0.76c-0.47-0.17-0.98-0.26-1.54-0.26
		c-2.28,0-3.6,1.28-3.96,3.84H220.06z"/>
	<path class="st2" d="M232.93,330.85v-19.47h2.32v7.27c1.08-1.61,2.61-2.41,4.59-2.41c0.93,0,1.78,0.18,2.54,0.54
		c0.76,0.36,1.42,0.87,1.96,1.54s0.97,1.46,1.27,2.39c0.3,0.93,0.45,1.96,0.45,3.1c0,1.12-0.15,2.14-0.44,3.06s-0.7,1.71-1.24,2.35
		c-0.54,0.65-1.19,1.15-1.96,1.51s-1.62,0.54-2.56,0.54c-1.02,0-1.89-0.18-2.62-0.54s-1.39-0.92-1.99-1.68v1.78H232.93z
		 M235.16,323.68c0,1.76,0.36,3.11,1.08,4.06c0.72,0.95,1.75,1.42,3.1,1.42c0.65,0,1.23-0.12,1.75-0.36
		c0.52-0.24,0.96-0.58,1.33-1.04c0.37-0.45,0.65-0.99,0.85-1.63c0.19-0.64,0.29-1.36,0.29-2.16c0-1.81-0.37-3.2-1.1-4.16
		c-0.73-0.96-1.77-1.45-3.12-1.45C236.56,318.37,235.16,320.14,235.16,323.68z"/>
	<path class="st2" d="M260.87,324.49h-10.33c0,1.47,0.35,2.59,1.04,3.35c0.69,0.77,1.68,1.15,2.96,1.15c1.94,0,3.13-0.95,3.57-2.86
		h2.56c-0.18,0.8-0.46,1.51-0.82,2.14c-0.37,0.62-0.82,1.16-1.35,1.59c-0.53,0.44-1.13,0.77-1.81,1c-0.68,0.23-1.42,0.35-2.23,0.35
		c-1.01,0-1.91-0.17-2.71-0.52s-1.48-0.84-2.04-1.49c-0.56-0.65-0.99-1.44-1.29-2.36c-0.3-0.92-0.45-1.97-0.45-3.14
		c0-1.16,0.17-2.2,0.5-3.12c0.33-0.92,0.79-1.7,1.38-2.34s1.29-1.13,2.11-1.47s1.72-0.51,2.7-0.51c0.92,0,1.76,0.14,2.53,0.43
		c0.76,0.29,1.42,0.73,1.97,1.31c0.55,0.58,0.98,1.33,1.28,2.22c0.3,0.89,0.46,1.95,0.46,3.16L260.87,324.49z M258.41,322.27
		c0-0.6-0.1-1.14-0.29-1.61c-0.19-0.47-0.45-0.88-0.79-1.21c-0.34-0.33-0.74-0.58-1.21-0.76c-0.47-0.17-0.98-0.26-1.54-0.26
		c-2.28,0-3.6,1.28-3.96,3.84H258.41z"/>
	<path class="st2" d="M262.79,326.15h2.59c0,0.28,0.01,0.52,0.02,0.71c0.01,0.2,0.04,0.37,0.08,0.51c0.04,0.15,0.09,0.28,0.17,0.39
		c0.07,0.11,0.17,0.23,0.29,0.35c0.57,0.58,1.43,0.87,2.59,0.87c0.93,0,1.67-0.19,2.23-0.56s0.84-0.88,0.84-1.51
		c0-0.3-0.1-0.57-0.29-0.81c-0.2-0.24-0.56-0.48-1.1-0.72l-4.48-1.4c-1.65-0.75-2.47-1.96-2.47-3.64c0-0.61,0.13-1.17,0.39-1.68
		c0.26-0.51,0.62-0.95,1.09-1.31s1.02-0.65,1.67-0.85c0.65-0.2,1.37-0.3,2.16-0.3c0.78,0,1.49,0.1,2.13,0.29
		c0.64,0.19,1.19,0.47,1.66,0.85s0.83,0.84,1.08,1.41c0.25,0.57,0.38,1.22,0.38,1.97h-2.5c0-0.44-0.08-0.81-0.23-1.1
		c-0.16-0.29-0.37-0.53-0.63-0.71c-0.26-0.18-0.57-0.31-0.92-0.39s-0.7-0.12-1.07-0.12s-0.72,0.04-1.04,0.13
		c-0.33,0.08-0.61,0.21-0.86,0.36c-0.25,0.16-0.44,0.34-0.58,0.56c-0.15,0.21-0.22,0.45-0.22,0.7c0,0.78,0.41,1.32,1.23,1.63
		l4.17,1.29c0.51,0.22,0.96,0.44,1.33,0.67c0.38,0.22,0.7,0.47,0.95,0.75c0.25,0.28,0.45,0.58,0.58,0.92
		c0.13,0.34,0.19,0.73,0.19,1.18c0,0.66-0.13,1.27-0.4,1.83c-0.26,0.56-0.64,1.04-1.13,1.45c-0.49,0.41-1.09,0.73-1.8,0.97
		c-0.71,0.23-1.5,0.35-2.38,0.35c-1.86,0-3.28-0.42-4.25-1.28C263.28,329.07,262.79,327.81,262.79,326.15z"/>
	<path class="st2" d="M275.57,316.57h1.88v-3.49h2.44v3.49h2.37v2.07h-2.37v8.64c0,0.34,0.02,0.62,0.07,0.85
		c0.04,0.23,0.13,0.41,0.25,0.54c0.12,0.13,0.28,0.23,0.48,0.29s0.46,0.08,0.76,0.08l0.81-0.03v2.08l-1.83,0.11
		c-1.48,0-2.39-0.54-2.74-1.61c-0.16-0.41-0.24-1.24-0.24-2.49v-8.46h-1.88V316.57z"/>
	<path class="st2" d="M292.96,330.85v-12.1h-2.29v-1.87h2.29v-2.05c0-2.32,1.05-3.48,3.16-3.48c0.16,0,0.37,0.02,0.62,0.04
		c0.25,0.03,0.62,0.08,1.1,0.15v2.1c-0.25-0.04-0.46-0.07-0.63-0.09c-0.17-0.02-0.3-0.03-0.41-0.03c-0.27,0-0.5,0.03-0.69,0.1
		c-0.19,0.06-0.34,0.18-0.46,0.34c-0.12,0.17-0.2,0.39-0.26,0.67c-0.05,0.29-0.08,0.64-0.08,1.07v1.17h2.52v1.87h-2.52v12.1H292.96z
		"/>
	<path class="st2" d="M298.72,323.68c0-1.18,0.15-2.23,0.44-3.16c0.29-0.92,0.72-1.71,1.27-2.35s1.23-1.13,2.03-1.46
		s1.7-0.5,2.71-0.5c1,0,1.9,0.17,2.7,0.5c0.8,0.33,1.48,0.82,2.04,1.46s0.99,1.42,1.28,2.35s0.44,1.98,0.44,3.16
		c0,1.17-0.14,2.22-0.43,3.14s-0.71,1.71-1.27,2.36c-0.55,0.65-1.23,1.15-2.03,1.49s-1.71,0.52-2.73,0.52
		c-1.01,0-1.91-0.17-2.71-0.52c-0.79-0.34-1.47-0.84-2.03-1.48c-0.56-0.65-0.99-1.43-1.28-2.36
		C298.87,325.9,298.72,324.85,298.72,323.68z M301.33,323.68c0,0.82,0.08,1.56,0.25,2.21c0.17,0.66,0.42,1.21,0.75,1.67
		c0.33,0.46,0.73,0.81,1.21,1.06c0.47,0.25,1.02,0.37,1.64,0.37c1.24,0,2.19-0.46,2.85-1.39s0.99-2.26,0.99-3.99
		c0-0.81-0.08-1.54-0.25-2.18c-0.17-0.65-0.42-1.19-0.75-1.63c-0.33-0.44-0.73-0.78-1.21-1.01c-0.48-0.24-1.02-0.35-1.63-0.35
		c-1.24,0-2.19,0.46-2.86,1.36C301.66,320.71,301.33,322,301.33,323.68z"/>
	<path class="st2" d="M314.33,316.57h2.47v2.37c0.5-1,1.05-1.7,1.66-2.11c0.6-0.41,1.29-0.62,2.06-0.62c0.09,0,0.19,0,0.3,0.02
		c0.11,0.01,0.28,0.04,0.5,0.09v2.62l-0.78-0.08c-0.91,0-1.68,0.23-2.31,0.7s-1.04,1.15-1.25,2.06c-0.1,0.47-0.15,1.17-0.15,2.11
		v7.08h-2.5V316.57z"/>
	<path class="st2" d="M339.77,318.03v-6.69h2.46v19.47h-2.34v-1.81c-0.36,0.43-0.69,0.79-1,1.07c-0.31,0.29-0.62,0.51-0.94,0.67
		c-0.32,0.17-0.66,0.28-1.01,0.35c-0.35,0.07-0.75,0.11-1.19,0.11c-0.87,0-1.65-0.17-2.35-0.52s-1.29-0.83-1.78-1.47
		c-0.5-0.63-0.88-1.4-1.14-2.29c-0.27-0.89-0.4-1.9-0.4-3.01c0-1.14,0.14-2.18,0.42-3.13c0.28-0.94,0.67-1.76,1.18-2.44
		s1.12-1.21,1.84-1.59s1.51-0.57,2.38-0.57c0.39,0,0.75,0.03,1.08,0.09c0.33,0.06,0.64,0.16,0.94,0.31c0.3,0.15,0.6,0.34,0.9,0.57
		C339.11,317.38,339.43,317.68,339.77,318.03z M336.32,328.99c1.17,0,2.06-0.45,2.68-1.36c0.61-0.9,0.92-2.22,0.92-3.95
		c0-1.69-0.31-2.99-0.92-3.89c-0.62-0.91-1.51-1.36-2.68-1.36c-1.18,0-2.08,0.45-2.71,1.34c-0.62,0.9-0.94,2.2-0.94,3.91
		c0,1.73,0.31,3.05,0.94,3.95C334.24,328.54,335.14,328.99,336.32,328.99z"/>
	<path class="st2" d="M357.83,324.49h-10.33c0,1.47,0.35,2.59,1.04,3.35c0.7,0.77,1.68,1.15,2.96,1.15c1.94,0,3.13-0.95,3.57-2.86
		h2.56c-0.18,0.8-0.46,1.51-0.82,2.14c-0.37,0.62-0.82,1.16-1.35,1.59c-0.53,0.44-1.13,0.77-1.81,1c-0.68,0.23-1.42,0.35-2.23,0.35
		c-1.01,0-1.92-0.17-2.71-0.52s-1.48-0.84-2.04-1.49c-0.56-0.65-0.99-1.44-1.29-2.36s-0.45-1.97-0.45-3.14
		c0-1.16,0.16-2.2,0.49-3.12s0.79-1.7,1.38-2.34s1.29-1.13,2.11-1.47c0.82-0.34,1.72-0.51,2.7-0.51c0.92,0,1.76,0.14,2.53,0.43
		c0.77,0.29,1.42,0.73,1.97,1.31s0.98,1.33,1.28,2.22c0.3,0.89,0.46,1.95,0.46,3.16L357.83,324.49z M355.37,322.27
		c0-0.6-0.09-1.14-0.28-1.61c-0.19-0.47-0.45-0.88-0.79-1.21s-0.74-0.58-1.21-0.76s-0.98-0.26-1.54-0.26c-2.28,0-3.6,1.28-3.96,3.84
		H355.37z"/>
	<path class="st2" d="M360.51,316.57h2.46v1.86c0.73-0.84,1.42-1.42,2.07-1.74c0.64-0.32,1.42-0.48,2.32-0.48
		c0.62,0,1.2,0.09,1.75,0.28c0.54,0.19,1.02,0.45,1.43,0.8s0.73,0.78,0.97,1.3c0.23,0.52,0.35,1.1,0.35,1.76l0.03,1.39v9.07h-2.46
		v-8.61c0-1.32-0.16-2.21-0.48-2.68c-0.48-0.73-1.25-1.09-2.32-1.09c-1.45,0-2.5,0.61-3.16,1.81c-0.3,0.46-0.46,1.04-0.46,1.75
		l-0.03,1.35v7.47h-2.46V316.57z"/>
	<path class="st2" d="M374.01,316.57h1.88v-3.49h2.44v3.49h2.37v2.07h-2.37v8.64c0,0.34,0.02,0.62,0.07,0.85
		c0.04,0.23,0.13,0.41,0.25,0.54c0.12,0.13,0.28,0.23,0.48,0.29s0.46,0.08,0.76,0.08l0.81-0.03v2.08l-1.83,0.11
		c-1.48,0-2.39-0.54-2.74-1.61c-0.16-0.41-0.24-1.24-0.24-2.49v-8.46h-1.88V316.57z"/>
	<path class="st2" d="M383.27,321.01c0-0.79,0.13-1.48,0.4-2.08c0.27-0.6,0.65-1.1,1.14-1.51c0.49-0.4,1.09-0.71,1.79-0.91
		c0.7-0.2,1.49-0.3,2.37-0.3c0.9,0,1.69,0.08,2.37,0.23c0.68,0.16,1.25,0.41,1.7,0.76c0.46,0.36,0.8,0.82,1.03,1.39
		c0.23,0.57,0.35,1.27,0.35,2.1v6.79c0,0.98,0.29,1.47,0.87,1.47l0.71-0.06v1.88c-0.18,0.06-0.34,0.11-0.48,0.14
		c-0.14,0.04-0.27,0.06-0.38,0.09c-0.12,0.02-0.22,0.04-0.32,0.04c-0.1,0-0.21,0.01-0.33,0.01c-1.33,0-2.09-0.72-2.28-2.16
		c-1.38,1.53-3.01,2.29-4.89,2.29c-0.69,0-1.32-0.1-1.89-0.29c-0.57-0.19-1.06-0.48-1.46-0.85c-0.4-0.37-0.72-0.82-0.94-1.33
		s-0.33-1.11-0.33-1.77c0-1.79,0.79-3.05,2.37-3.79c1.08-0.5,2.93-0.9,5.56-1.2l1.42-0.2v-0.69c0-0.52-0.07-0.95-0.2-1.29
		s-0.33-0.61-0.59-0.82s-0.58-0.35-0.96-0.43s-0.82-0.13-1.32-0.13c-1.01,0-1.79,0.22-2.33,0.65s-0.82,1.08-0.82,1.96H383.27z
		 M392.02,323.68c-0.33,0.05-0.63,0.09-0.91,0.13c-0.27,0.04-0.55,0.08-0.83,0.13s-0.58,0.1-0.89,0.16
		c-0.31,0.06-0.68,0.13-1.09,0.22c-0.54,0.13-1,0.27-1.38,0.41c-0.38,0.14-0.69,0.31-0.93,0.5c-0.24,0.19-0.41,0.41-0.52,0.67
		c-0.1,0.25-0.16,0.56-0.16,0.91c0,0.69,0.22,1.23,0.67,1.61c0.45,0.38,1.07,0.57,1.88,0.57c0.57,0,1.11-0.09,1.61-0.27
		c0.5-0.18,0.94-0.42,1.32-0.72s0.67-0.65,0.89-1.05c0.22-0.4,0.33-0.83,0.33-1.28V323.68z"/>
	<path class="st2" d="M398.08,311.23h2.46v19.59h-2.46V311.23z"/>
	<path class="st2" d="M410.85,326.15h2.59c0,0.28,0.01,0.52,0.02,0.71c0.01,0.2,0.04,0.37,0.08,0.51c0.04,0.15,0.09,0.28,0.17,0.39
		c0.07,0.11,0.17,0.23,0.29,0.35c0.57,0.58,1.43,0.87,2.59,0.87c0.93,0,1.67-0.19,2.23-0.56s0.84-0.88,0.84-1.51
		c0-0.3-0.1-0.57-0.29-0.81c-0.2-0.24-0.56-0.48-1.1-0.72l-4.48-1.4c-1.65-0.75-2.47-1.96-2.47-3.64c0-0.61,0.13-1.17,0.39-1.68
		c0.26-0.51,0.62-0.95,1.09-1.31s1.02-0.65,1.67-0.85c0.65-0.2,1.37-0.3,2.16-0.3c0.78,0,1.49,0.1,2.13,0.29
		c0.64,0.19,1.19,0.47,1.66,0.85s0.83,0.84,1.08,1.41c0.25,0.57,0.38,1.22,0.38,1.97h-2.5c0-0.44-0.08-0.81-0.23-1.1
		c-0.16-0.29-0.37-0.53-0.63-0.71c-0.26-0.18-0.57-0.31-0.92-0.39s-0.7-0.12-1.07-0.12s-0.72,0.04-1.04,0.13
		c-0.33,0.08-0.61,0.21-0.86,0.36c-0.25,0.16-0.44,0.34-0.58,0.56c-0.15,0.21-0.22,0.45-0.22,0.7c0,0.78,0.41,1.32,1.23,1.63
		l4.17,1.29c0.51,0.22,0.96,0.44,1.33,0.67c0.38,0.22,0.7,0.47,0.95,0.75c0.25,0.28,0.45,0.58,0.58,0.92
		c0.13,0.34,0.19,0.73,0.19,1.18c0,0.66-0.13,1.27-0.4,1.83c-0.26,0.56-0.64,1.04-1.13,1.45c-0.49,0.41-1.09,0.73-1.8,0.97
		c-0.71,0.23-1.5,0.35-2.38,0.35c-1.86,0-3.28-0.42-4.25-1.28C411.34,329.07,410.85,327.81,410.85,326.15z"/>
	<path class="st2" d="M423.63,316.57h1.88v-3.49h2.44v3.49h2.37v2.07h-2.37v8.64c0,0.34,0.02,0.62,0.07,0.85
		c0.04,0.23,0.13,0.41,0.25,0.54c0.12,0.13,0.28,0.23,0.48,0.29s0.46,0.08,0.76,0.08l0.81-0.03v2.08l-1.83,0.11
		c-1.48,0-2.39-0.54-2.74-1.61c-0.16-0.41-0.24-1.24-0.24-2.49v-8.46h-1.88V316.57z"/>
	<path class="st2" d="M432.85,316.57h2.46v9.04c0,0.68,0.05,1.24,0.17,1.67c0.11,0.44,0.28,0.78,0.5,1.03
		c0.23,0.25,0.51,0.42,0.86,0.53c0.34,0.1,0.75,0.15,1.22,0.15c0.4,0,0.79-0.06,1.18-0.19s0.74-0.32,1.06-0.57
		c0.32-0.25,0.59-0.56,0.83-0.92c0.23-0.37,0.39-0.78,0.5-1.25c0.11-0.53,0.17-1.27,0.17-2.23v-7.24h2.46v14.2h-2.28v-2.19
		c-0.87,1.74-2.38,2.61-4.51,2.61c-0.72,0-1.37-0.09-1.93-0.28c-0.57-0.19-1.05-0.49-1.44-0.92c-0.39-0.42-0.69-0.98-0.9-1.67
		c-0.21-0.69-0.32-1.54-0.32-2.55V316.57z"/>
	<path class="st2" d="M456.65,318.03v-6.69h2.46v19.47h-2.34v-1.81c-0.36,0.43-0.69,0.79-1,1.07c-0.31,0.29-0.62,0.51-0.94,0.67
		c-0.32,0.17-0.66,0.28-1.01,0.35c-0.35,0.07-0.75,0.11-1.19,0.11c-0.87,0-1.65-0.17-2.35-0.52s-1.29-0.83-1.78-1.47
		c-0.5-0.63-0.88-1.4-1.14-2.29c-0.27-0.89-0.4-1.9-0.4-3.01c0-1.14,0.14-2.18,0.42-3.13c0.28-0.94,0.67-1.76,1.18-2.44
		s1.12-1.21,1.84-1.59s1.51-0.57,2.38-0.57c0.39,0,0.75,0.03,1.08,0.09c0.33,0.06,0.64,0.16,0.94,0.31c0.3,0.15,0.6,0.34,0.9,0.57
		C456,317.38,456.31,317.68,456.65,318.03z M453.21,328.99c1.17,0,2.06-0.45,2.68-1.36c0.61-0.9,0.92-2.22,0.92-3.95
		c0-1.69-0.31-2.99-0.92-3.89c-0.62-0.91-1.51-1.36-2.68-1.36c-1.18,0-2.08,0.45-2.71,1.34c-0.62,0.9-0.94,2.2-0.94,3.91
		c0,1.73,0.31,3.05,0.94,3.95C451.12,328.54,452.03,328.99,453.21,328.99z"/>
	<path class="st2" d="M474.71,324.49h-10.33c0,1.47,0.35,2.59,1.04,3.35c0.7,0.77,1.68,1.15,2.96,1.15c1.94,0,3.13-0.95,3.57-2.86
		h2.56c-0.18,0.8-0.46,1.51-0.82,2.14c-0.37,0.62-0.82,1.16-1.35,1.59c-0.53,0.44-1.13,0.77-1.81,1c-0.68,0.23-1.42,0.35-2.23,0.35
		c-1.01,0-1.92-0.17-2.71-0.52s-1.48-0.84-2.04-1.49c-0.56-0.65-0.99-1.44-1.29-2.36s-0.45-1.97-0.45-3.14
		c0-1.16,0.16-2.2,0.49-3.12s0.79-1.7,1.38-2.34s1.29-1.13,2.11-1.47c0.82-0.34,1.72-0.51,2.7-0.51c0.92,0,1.76,0.14,2.53,0.43
		c0.77,0.29,1.42,0.73,1.97,1.31s0.98,1.33,1.28,2.22c0.3,0.89,0.46,1.95,0.46,3.16L474.71,324.49z M472.25,322.27
		c0-0.6-0.09-1.14-0.28-1.61c-0.19-0.47-0.45-0.88-0.79-1.21s-0.74-0.58-1.21-0.76s-0.98-0.26-1.54-0.26c-2.28,0-3.6,1.28-3.96,3.84
		H472.25z"/>
	<path class="st2" d="M477.4,316.57h2.46v1.86c0.73-0.84,1.42-1.42,2.07-1.74c0.64-0.32,1.42-0.48,2.32-0.48
		c0.62,0,1.2,0.09,1.75,0.28c0.54,0.19,1.02,0.45,1.43,0.8s0.73,0.78,0.97,1.3c0.23,0.52,0.35,1.1,0.35,1.76l0.03,1.39v9.07h-2.46
		v-8.61c0-1.32-0.16-2.21-0.48-2.68c-0.48-0.73-1.25-1.09-2.32-1.09c-1.45,0-2.5,0.61-3.16,1.81c-0.3,0.46-0.46,1.04-0.46,1.75
		l-0.03,1.35v7.47h-2.46V316.57z"/>
	<path class="st2" d="M490.89,316.57h1.88v-3.49h2.44v3.49h2.37v2.07h-2.37v8.64c0,0.34,0.02,0.62,0.07,0.85
		c0.04,0.23,0.13,0.41,0.25,0.54c0.12,0.13,0.28,0.23,0.48,0.29s0.46,0.08,0.76,0.08l0.81-0.03v2.08l-1.83,0.11
		c-1.48,0-2.39-0.54-2.74-1.61c-0.16-0.41-0.24-1.24-0.24-2.49v-8.46h-1.88V316.57z"/>
	<path class="st2" d="M499.35,326.15h2.59c0,0.28,0.01,0.52,0.02,0.71c0.01,0.2,0.04,0.37,0.08,0.51c0.04,0.15,0.09,0.28,0.17,0.39
		c0.07,0.11,0.17,0.23,0.29,0.35c0.57,0.58,1.43,0.87,2.59,0.87c0.93,0,1.67-0.19,2.23-0.56s0.84-0.88,0.84-1.51
		c0-0.3-0.1-0.57-0.29-0.81c-0.2-0.24-0.56-0.48-1.1-0.72l-4.48-1.4c-1.65-0.75-2.47-1.96-2.47-3.64c0-0.61,0.13-1.17,0.39-1.68
		c0.26-0.51,0.62-0.95,1.09-1.31s1.02-0.65,1.67-0.85c0.65-0.2,1.37-0.3,2.16-0.3c0.78,0,1.49,0.1,2.13,0.29
		c0.64,0.19,1.19,0.47,1.66,0.85s0.83,0.84,1.08,1.41c0.25,0.57,0.38,1.22,0.38,1.97h-2.5c0-0.44-0.08-0.81-0.23-1.1
		c-0.16-0.29-0.37-0.53-0.63-0.71c-0.26-0.18-0.57-0.31-0.92-0.39s-0.7-0.12-1.07-0.12s-0.72,0.04-1.04,0.13
		c-0.33,0.08-0.61,0.21-0.86,0.36c-0.25,0.16-0.44,0.34-0.58,0.56c-0.15,0.21-0.22,0.45-0.22,0.7c0,0.78,0.41,1.32,1.23,1.63
		l4.17,1.29c0.51,0.22,0.96,0.44,1.33,0.67c0.38,0.22,0.7,0.47,0.95,0.75c0.25,0.28,0.45,0.58,0.58,0.92
		c0.13,0.34,0.19,0.73,0.19,1.18c0,0.66-0.13,1.27-0.4,1.83c-0.26,0.56-0.64,1.04-1.13,1.45c-0.49,0.41-1.09,0.73-1.8,0.97
		c-0.71,0.23-1.5,0.35-2.38,0.35c-1.86,0-3.28-0.42-4.25-1.28C499.84,329.07,499.35,327.81,499.35,326.15z"/>
</g>
<path class="st3" d="M54.65,267.62c-8.8-0.02-15.89-7.18-15.85-16.01c0.04-8.76,7.2-15.84,16-15.8c8.77,0.04,15.84,7.18,15.82,15.98
	C70.58,260.55,63.43,267.64,54.65,267.62z M48.14,247.62C48.14,247.62,48.14,247.62,48.14,247.62c-1-0.01-1.99-0.01-2.99-0.01
	c-0.38,0-0.89-0.07-0.92,0.44c-0.02,0.29,0.24,0.7,0.5,0.9c1.57,1.19,3.17,2.34,4.78,3.47c0.52,0.36,0.62,0.74,0.42,1.32
	c-0.64,1.86-1.24,3.73-1.85,5.6c-0.12,0.37-0.28,0.75,0.13,1.05c0.42,0.31,0.72,0.01,1.03-0.21c1.61-1.17,3.23-2.34,4.82-3.53
	c0.46-0.34,0.82-0.34,1.27,0c1.6,1.19,3.22,2.35,4.83,3.52c0.31,0.23,0.61,0.52,1.03,0.21c0.41-0.3,0.24-0.68,0.12-1.05
	c-0.61-1.87-1.21-3.74-1.85-5.6c-0.2-0.59-0.09-0.96,0.42-1.32c1.63-1.14,3.25-2.31,4.84-3.51c0.24-0.18,0.32-0.57,0.48-0.86
	c-0.3-0.14-0.59-0.41-0.89-0.41c-1.97-0.04-3.94-0.04-5.91,0c-0.7,0.02-1.01-0.25-1.21-0.9c-0.57-1.86-1.19-3.7-1.78-5.55
	c-0.12-0.37-0.2-0.77-0.71-0.77c-0.51,0-0.59,0.41-0.71,0.78c-0.62,1.91-1.25,3.83-1.86,5.74c-0.15,0.49-0.43,0.7-0.94,0.69
	C50.18,247.61,49.16,247.62,48.14,247.62z"/>
</svg>
